<svg width="525" height="536" viewBox="0 0 525 536" fill="none" xmlns="http://www.w3.org/2000/svg">
<g clip-path="url(#clip0_75_4048)">
<rect width="525" height="536" rx="80" fill="#EAF7E5"/>
<g opacity="0.4">
<circle cx="27.4763" cy="505.29" r="2.51253" fill="#A1C487" fill-opacity="0.69"/>
<circle cx="73.9582" cy="505.29" r="2.51253" fill="#A1C487" fill-opacity="0.69"/>
<circle cx="120.44" cy="505.29" r="2.51253" fill="#A1C487" fill-opacity="0.69"/>
<circle cx="166.922" cy="505.29" r="2.51253" fill="#A1C487" fill-opacity="0.69"/>
<circle cx="213.404" cy="505.29" r="2.51253" fill="#A1C487" fill-opacity="0.69"/>
<circle cx="259.886" cy="505.29" r="2.51253" fill="#A1C487" fill-opacity="0.69"/>
<circle cx="306.368" cy="505.29" r="2.51253" fill="#A1C487" fill-opacity="0.69"/>
<circle cx="352.85" cy="505.29" r="2.51253" fill="#A1C487" fill-opacity="0.69"/>
<circle cx="399.331" cy="505.29" r="2.51253" fill="#A1C487" fill-opacity="0.69"/>
<circle cx="445.813" cy="505.29" r="2.51253" fill="#A1C487" fill-opacity="0.69"/>
<circle cx="492.295" cy="505.29" r="2.51253" fill="#A1C487" fill-opacity="0.69"/>
<circle cx="27.4763" cy="460.064" r="2.51253" fill="#A1C487" fill-opacity="0.69"/>
<circle cx="73.9582" cy="460.064" r="2.51253" fill="#A1C487" fill-opacity="0.69"/>
<circle cx="120.44" cy="460.064" r="2.51253" fill="#A1C487" fill-opacity="0.69"/>
<circle cx="166.922" cy="460.064" r="2.51253" fill="#A1C487" fill-opacity="0.69"/>
<circle cx="213.404" cy="460.064" r="2.51253" fill="#A1C487" fill-opacity="0.69"/>
<circle cx="259.886" cy="460.064" r="2.51253" fill="#A1C487" fill-opacity="0.69"/>
<circle cx="306.368" cy="460.064" r="2.51253" fill="#A1C487" fill-opacity="0.69"/>
<circle cx="352.85" cy="460.064" r="2.51253" fill="#A1C487" fill-opacity="0.69"/>
<circle cx="399.331" cy="460.064" r="2.51253" fill="#A1C487" fill-opacity="0.69"/>
<circle cx="445.813" cy="460.064" r="2.51253" fill="#A1C487" fill-opacity="0.69"/>
<circle cx="492.295" cy="460.064" r="2.51253" fill="#A1C487" fill-opacity="0.69"/>
<circle cx="27.4763" cy="414.839" r="2.51253" fill="#A1C487" fill-opacity="0.69"/>
<circle cx="73.9582" cy="414.839" r="2.51253" fill="#A1C487" fill-opacity="0.69"/>
<circle cx="120.44" cy="414.839" r="2.51253" fill="#A1C487" fill-opacity="0.69"/>
<circle cx="166.922" cy="414.839" r="2.51253" fill="#A1C487" fill-opacity="0.69"/>
<circle cx="213.404" cy="414.839" r="2.51253" fill="#A1C487" fill-opacity="0.69"/>
<circle cx="259.886" cy="414.839" r="2.51253" fill="#A1C487" fill-opacity="0.69"/>
<circle cx="306.368" cy="414.839" r="2.51253" fill="#A1C487" fill-opacity="0.69"/>
<circle cx="352.85" cy="414.839" r="2.51253" fill="#A1C487" fill-opacity="0.69"/>
<circle cx="399.331" cy="414.839" r="2.51253" fill="#A1C487" fill-opacity="0.69"/>
<circle cx="445.813" cy="414.839" r="2.51253" fill="#A1C487" fill-opacity="0.69"/>
<circle cx="492.295" cy="414.839" r="2.51253" fill="#A1C487" fill-opacity="0.69"/>
<circle cx="27.4763" cy="369.613" r="2.51253" fill="#A1C487" fill-opacity="0.69"/>
<circle cx="73.9582" cy="369.613" r="2.51253" fill="#A1C487" fill-opacity="0.69"/>
<circle cx="120.44" cy="369.613" r="2.51253" fill="#A1C487" fill-opacity="0.69"/>
<circle cx="166.922" cy="369.613" r="2.51253" fill="#A1C487" fill-opacity="0.69"/>
<circle cx="213.404" cy="369.613" r="2.51253" fill="#A1C487" fill-opacity="0.69"/>
<circle cx="259.886" cy="369.613" r="2.51253" fill="#A1C487" fill-opacity="0.69"/>
<circle cx="306.368" cy="369.613" r="2.51253" fill="#A1C487" fill-opacity="0.69"/>
<circle cx="352.85" cy="369.613" r="2.51253" fill="#A1C487" fill-opacity="0.69"/>
<circle cx="399.331" cy="369.613" r="2.51253" fill="#A1C487" fill-opacity="0.69"/>
<circle cx="445.813" cy="369.613" r="2.51253" fill="#A1C487" fill-opacity="0.69"/>
<circle cx="492.295" cy="369.613" r="2.51253" fill="#A1C487" fill-opacity="0.69"/>
<circle cx="27.4763" cy="324.387" r="2.51253" fill="#A1C487" fill-opacity="0.69"/>
<circle cx="73.9582" cy="324.387" r="2.51253" fill="#A1C487" fill-opacity="0.69"/>
<circle cx="120.44" cy="324.387" r="2.51253" fill="#A1C487" fill-opacity="0.69"/>
<circle cx="166.922" cy="324.387" r="2.51253" fill="#A1C487" fill-opacity="0.69"/>
<circle cx="213.404" cy="324.387" r="2.51253" fill="#A1C487" fill-opacity="0.69"/>
<circle cx="259.886" cy="324.387" r="2.51253" fill="#A1C487" fill-opacity="0.69"/>
<circle cx="306.368" cy="324.387" r="2.51253" fill="#A1C487" fill-opacity="0.69"/>
<circle cx="352.85" cy="324.387" r="2.51253" fill="#A1C487" fill-opacity="0.69"/>
<circle cx="399.331" cy="324.387" r="2.51253" fill="#A1C487" fill-opacity="0.69"/>
<circle cx="445.813" cy="324.387" r="2.51253" fill="#A1C487" fill-opacity="0.69"/>
<circle cx="492.295" cy="324.387" r="2.51253" fill="#A1C487" fill-opacity="0.69"/>
<circle cx="27.4763" cy="279.162" r="2.51253" fill="#A1C487" fill-opacity="0.69"/>
<circle cx="73.9582" cy="279.162" r="2.51253" fill="#A1C487" fill-opacity="0.69"/>
<circle cx="120.44" cy="279.162" r="2.51253" fill="#A1C487" fill-opacity="0.69"/>
<circle cx="166.922" cy="279.162" r="2.51253" fill="#A1C487" fill-opacity="0.69"/>
<circle cx="213.404" cy="279.162" r="2.51253" fill="#A1C487" fill-opacity="0.69"/>
<circle cx="259.886" cy="279.162" r="2.51253" fill="#A1C487" fill-opacity="0.69"/>
<circle cx="306.368" cy="279.162" r="2.51253" fill="#A1C487" fill-opacity="0.69"/>
<circle cx="352.85" cy="279.162" r="2.51253" fill="#A1C487" fill-opacity="0.69"/>
<circle cx="399.331" cy="279.162" r="2.51253" fill="#A1C487" fill-opacity="0.69"/>
<circle cx="445.813" cy="279.162" r="2.51253" fill="#A1C487" fill-opacity="0.69"/>
<circle cx="492.295" cy="279.162" r="2.51253" fill="#A1C487" fill-opacity="0.69"/>
<circle cx="27.4763" cy="233.936" r="2.51253" fill="#A1C487" fill-opacity="0.69"/>
<circle cx="73.9582" cy="233.936" r="2.51253" fill="#A1C487" fill-opacity="0.69"/>
<circle cx="120.44" cy="233.936" r="2.51253" fill="#A1C487" fill-opacity="0.69"/>
<circle cx="166.922" cy="233.936" r="2.51253" fill="#A1C487" fill-opacity="0.69"/>
<circle cx="213.404" cy="233.936" r="2.51253" fill="#A1C487" fill-opacity="0.69"/>
<circle cx="259.886" cy="233.936" r="2.51253" fill="#A1C487" fill-opacity="0.69"/>
<circle cx="306.368" cy="233.936" r="2.51253" fill="#A1C487" fill-opacity="0.69"/>
<circle cx="352.85" cy="233.936" r="2.51253" fill="#A1C487" fill-opacity="0.69"/>
<circle cx="399.331" cy="233.936" r="2.51253" fill="#A1C487" fill-opacity="0.69"/>
<circle cx="445.813" cy="233.936" r="2.51253" fill="#A1C487" fill-opacity="0.69"/>
<circle cx="492.295" cy="233.936" r="2.51253" fill="#A1C487" fill-opacity="0.69"/>
<circle cx="27.4763" cy="188.71" r="2.51253" fill="#A1C487" fill-opacity="0.69"/>
<circle cx="73.9582" cy="188.71" r="2.51253" fill="#A1C487" fill-opacity="0.69"/>
<circle cx="120.44" cy="188.71" r="2.51253" fill="#A1C487" fill-opacity="0.69"/>
<circle cx="166.922" cy="188.71" r="2.51253" fill="#A1C487" fill-opacity="0.69"/>
<circle cx="213.404" cy="188.71" r="2.51253" fill="#A1C487" fill-opacity="0.69"/>
<circle cx="259.886" cy="188.71" r="2.51253" fill="#A1C487" fill-opacity="0.69"/>
<circle cx="306.368" cy="188.71" r="2.51253" fill="#A1C487" fill-opacity="0.69"/>
<circle cx="352.85" cy="188.71" r="2.51253" fill="#A1C487" fill-opacity="0.69"/>
<circle cx="399.331" cy="188.71" r="2.51253" fill="#A1C487" fill-opacity="0.69"/>
<circle cx="445.813" cy="188.71" r="2.51253" fill="#A1C487" fill-opacity="0.69"/>
<circle cx="492.295" cy="188.71" r="2.51253" fill="#A1C487" fill-opacity="0.69"/>
<circle cx="27.4763" cy="143.485" r="2.51253" fill="#A1C487" fill-opacity="0.69"/>
<circle cx="73.9582" cy="143.485" r="2.51253" fill="#A1C487" fill-opacity="0.69"/>
<circle cx="120.44" cy="143.485" r="2.51253" fill="#A1C487" fill-opacity="0.69"/>
<circle cx="166.922" cy="143.485" r="2.51253" fill="#A1C487" fill-opacity="0.69"/>
<circle cx="213.404" cy="143.485" r="2.51253" fill="#A1C487" fill-opacity="0.69"/>
<circle cx="259.886" cy="143.485" r="2.51253" fill="#A1C487" fill-opacity="0.69"/>
<circle cx="306.368" cy="143.485" r="2.51253" fill="#A1C487" fill-opacity="0.69"/>
<circle cx="352.85" cy="143.485" r="2.51253" fill="#A1C487" fill-opacity="0.69"/>
<circle cx="399.331" cy="143.485" r="2.51253" fill="#A1C487" fill-opacity="0.69"/>
<circle cx="445.813" cy="143.485" r="2.51253" fill="#A1C487" fill-opacity="0.69"/>
<circle cx="492.295" cy="143.485" r="2.51253" fill="#A1C487" fill-opacity="0.69"/>
<circle cx="27.4763" cy="98.2591" r="2.51253" fill="#A1C487" fill-opacity="0.69"/>
<circle cx="73.9582" cy="98.2591" r="2.51253" fill="#A1C487" fill-opacity="0.69"/>
<circle cx="120.44" cy="98.2591" r="2.51253" fill="#A1C487" fill-opacity="0.69"/>
<circle cx="166.922" cy="98.2591" r="2.51253" fill="#A1C487" fill-opacity="0.69"/>
<circle cx="213.404" cy="98.2591" r="2.51253" fill="#A1C487" fill-opacity="0.69"/>
<circle cx="259.886" cy="98.2591" r="2.51253" fill="#A1C487" fill-opacity="0.69"/>
<circle cx="306.368" cy="98.2591" r="2.51253" fill="#A1C487" fill-opacity="0.69"/>
<circle cx="352.85" cy="98.2591" r="2.51253" fill="#A1C487" fill-opacity="0.69"/>
<circle cx="399.331" cy="98.2591" r="2.51253" fill="#A1C487" fill-opacity="0.69"/>
<circle cx="445.813" cy="98.2591" r="2.51253" fill="#A1C487" fill-opacity="0.69"/>
<circle cx="492.295" cy="98.2591" r="2.51253" fill="#A1C487" fill-opacity="0.69"/>
<circle cx="27.4763" cy="53.0335" r="2.51253" fill="#A1C487" fill-opacity="0.69"/>
<circle cx="73.9582" cy="53.0335" r="2.51253" fill="#A1C487" fill-opacity="0.69"/>
<circle cx="120.44" cy="53.0335" r="2.51253" fill="#A1C487" fill-opacity="0.69"/>
<circle cx="166.922" cy="53.0335" r="2.51253" fill="#A1C487" fill-opacity="0.69"/>
<circle cx="213.404" cy="53.0335" r="2.51253" fill="#A1C487" fill-opacity="0.69"/>
<circle cx="259.886" cy="53.0335" r="2.51253" fill="#A1C487" fill-opacity="0.69"/>
<circle cx="306.368" cy="53.0335" r="2.51253" fill="#A1C487" fill-opacity="0.69"/>
<circle cx="352.85" cy="53.0335" r="2.51253" fill="#A1C487" fill-opacity="0.69"/>
<circle cx="399.331" cy="53.0335" r="2.51253" fill="#A1C487" fill-opacity="0.69"/>
<circle cx="445.813" cy="53.0335" r="2.51253" fill="#A1C487" fill-opacity="0.69"/>
<circle cx="492.295" cy="53.0335" r="2.51253" fill="#A1C487" fill-opacity="0.69"/>
<circle cx="27.4763" cy="7.80795" r="2.51253" fill="#A1C487" fill-opacity="0.69"/>
<circle cx="73.9582" cy="7.80795" r="2.51253" fill="#A1C487" fill-opacity="0.69"/>
<circle cx="120.44" cy="7.80795" r="2.51253" fill="#A1C487" fill-opacity="0.69"/>
<circle cx="166.922" cy="7.80795" r="2.51253" fill="#A1C487" fill-opacity="0.69"/>
<circle cx="213.404" cy="7.80795" r="2.51253" fill="#A1C487" fill-opacity="0.69"/>
<circle cx="259.886" cy="7.80795" r="2.51253" fill="#A1C487" fill-opacity="0.69"/>
<circle cx="306.368" cy="7.80795" r="2.51253" fill="#A1C487" fill-opacity="0.69"/>
<circle cx="352.85" cy="7.80795" r="2.51253" fill="#A1C487" fill-opacity="0.69"/>
<circle cx="399.331" cy="7.80795" r="2.51253" fill="#A1C487" fill-opacity="0.69"/>
<circle cx="445.813" cy="7.80795" r="2.51253" fill="#A1C487" fill-opacity="0.69"/>
<circle cx="492.295" cy="7.80795" r="2.51253" fill="#A1C487" fill-opacity="0.69"/>
</g>
</g>
<defs>
<clipPath id="clip0_75_4048">
<rect width="525" height="536" rx="80" fill="white"/>
</clipPath>
</defs>
</svg>
