<svg width="44" height="45" viewBox="0 0 44 45" fill="none" xmlns="http://www.w3.org/2000/svg">
<rect x="0.5" y="0.984375" width="43" height="43" rx="9.5" stroke="#141414"/>
<g opacity="0.8">
<path fill-rule="evenodd" clip-rule="evenodd" d="M29.21 13.7342C28.02 13.6642 25.57 13.5942 21.86 13.5942H21.37C17.8 13.5942 15.42 13.6642 14.23 13.8042C12.62 13.9442 11.5 14.3642 10.87 14.9242C10.31 15.4142 9.88999 16.3242 9.74999 17.5142C9.67999 18.2842 9.60999 19.8942 9.60999 22.3442V22.6942C9.60999 25.0042 9.67998 26.6142 9.81998 27.3842C10.03 28.5042 10.38 29.3442 11.08 29.8342C11.78 30.3942 12.97 30.7442 14.65 30.8842C15.84 30.9542 18.29 31.0242 22 31.0242H22.49C26.06 31.0242 28.44 30.9542 29.63 30.8142C31.24 30.6742 32.36 30.2542 32.99 29.6942C33.55 29.2042 33.97 28.2942 34.11 27.1042C34.18 26.3342 34.25 24.7242 34.25 22.2742V21.9242C34.25 19.6142 34.18 18.0042 34.04 17.2342C33.83 16.1142 33.48 15.2742 32.78 14.7842C32.08 14.2242 30.89 13.8742 29.21 13.7342ZM26.48 22.3442L18.78 26.9642V17.7242L26.48 22.3442Z" fill="#141414"/>
</g>
</svg>
