<svg width="15.786743" height="15.636963" viewBox="0 0 15.7867 15.637" fill="none" xmlns="http://www.w3.org/2000/svg" xmlns:xlink="http://www.w3.org/1999/xlink">
	<desc>
			Created with Pixso.
	</desc>
	<defs/>
	<path id="Vector" d="M3.12 0L1.12 0C0.5 0 0 0.49 0 1.09L0 3.06C0 3.66 0.5 4.16 1.12 4.16L3.12 4.16C3.74 4.16 4.24 3.66 4.24 3.06L4.24 1.09C4.24 0.49 3.74 0 3.12 0ZM8.79 0.06L6.79 0.06C6.17 0.06 5.67 0.56 5.67 1.16L5.67 3.13C5.67 3.73 6.17 4.22 6.79 4.22L8.79 4.22C9.41 4.22 9.91 3.73 9.91 3.13L9.91 1.16C9.91 0.56 9.41 0.06 8.79 0.06ZM14.54 0.11L12.53 0.11C11.91 0.11 11.41 0.6 11.41 1.21L11.41 3.17C11.41 3.78 11.91 4.27 12.53 4.27L14.54 4.27C15.15 4.27 15.66 3.78 15.66 3.17L15.66 1.21C15.66 0.6 15.15 0.11 14.54 0.11ZM3.12 5.74L1.12 5.74C0.5 5.74 0 6.23 0 6.84L0 8.81C0 9.41 0.5 9.9 1.12 9.9L3.12 9.9C3.74 9.9 4.24 9.41 4.24 8.81L4.24 6.84C4.24 6.23 3.74 5.74 3.12 5.74ZM9.03 5.8L7.03 5.8C6.41 5.8 5.91 6.29 5.91 6.9L5.91 8.86C5.91 9.47 6.41 9.96 7.03 9.96L9.03 9.96C9.65 9.96 10.15 9.47 10.15 8.86L10.15 6.9C10.15 6.29 9.65 5.8 9.03 5.8ZM14.52 5.91L12.51 5.91C11.89 5.91 11.39 6.41 11.39 7.01L11.39 8.98C11.39 9.58 11.89 10.07 12.51 10.07L14.52 10.07C15.14 10.07 15.64 9.58 15.64 8.98L15.64 7.01C15.64 6.41 15.14 5.91 14.52 5.91ZM8.88 11.44L6.87 11.44C6.25 11.44 5.75 11.93 5.75 12.54L5.75 14.5C5.75 15.11 6.25 15.6 6.87 15.6L8.88 15.6C9.5 15.6 10 15.11 10 14.5L10 12.54C10 11.93 9.5 11.44 8.88 11.44ZM14.66 11.44L12.66 11.44C12.04 11.44 11.54 11.93 11.54 12.54L11.54 14.5C11.54 15.11 12.04 15.6 12.66 15.6L14.66 15.6C15.28 15.6 15.78 15.11 15.78 14.5L15.78 12.54C15.78 11.93 15.28 11.44 14.66 11.44ZM3.36 11.47L1.2 11.47C0.54 11.47 0 11.96 0 12.57L0 14.53C0 15.14 0.54 15.63 1.2 15.63L3.36 15.63C4.03 15.63 4.57 15.14 4.57 14.53L4.57 12.57C4.57 11.96 4.03 11.47 3.36 11.47Z" fill="#77AC63" fill-opacity="1.000000" fill-rule="evenodd"/>
</svg>
